<mxfile host="app.diagrams.net" agent="Mozilla/5.0 (Macintosh; Intel Mac OS X 10.15; rv:143.0) Gecko/20100101 Firefox/143.0" version="28.2.5">
  <diagram name="Page-1" id="2-2BGVHY5RoY8PmpDTeY">
    <mxGraphModel dx="1257" dy="608" grid="1" gridSize="10" guides="1" tooltips="1" connect="1" arrows="1" fold="1" page="1" pageScale="1" pageWidth="827" pageHeight="1169" math="0" shadow="0">
      <root>
        <mxCell id="0" />
        <mxCell id="1" parent="0" />
        <mxCell id="Ku4oZlPeEh7fANMUZ4SY-6" value="" style="rounded=0;whiteSpace=wrap;html=1;" parent="1" vertex="1">
          <mxGeometry x="370" y="80" width="350" height="500" as="geometry" />
        </mxCell>
        <mxCell id="Ku4oZlPeEh7fANMUZ4SY-22" style="edgeStyle=orthogonalEdgeStyle;rounded=0;orthogonalLoop=1;jettySize=auto;html=1;entryX=0;entryY=0.5;entryDx=0;entryDy=0;" parent="1" source="Ku4oZlPeEh7fANMUZ4SY-1" target="Ku4oZlPeEh7fANMUZ4SY-7" edge="1">
          <mxGeometry relative="1" as="geometry">
            <Array as="points">
              <mxPoint x="350" y="250" />
              <mxPoint x="350" y="230" />
            </Array>
          </mxGeometry>
        </mxCell>
        <mxCell id="Ku4oZlPeEh7fANMUZ4SY-23" style="edgeStyle=orthogonalEdgeStyle;rounded=0;orthogonalLoop=1;jettySize=auto;html=1;entryX=0;entryY=0.5;entryDx=0;entryDy=0;" parent="1" source="Ku4oZlPeEh7fANMUZ4SY-1" target="Ku4oZlPeEh7fANMUZ4SY-12" edge="1">
          <mxGeometry relative="1" as="geometry">
            <Array as="points">
              <mxPoint x="410" y="250" />
              <mxPoint x="410" y="360" />
            </Array>
          </mxGeometry>
        </mxCell>
        <mxCell id="Ku4oZlPeEh7fANMUZ4SY-24" style="edgeStyle=orthogonalEdgeStyle;rounded=0;orthogonalLoop=1;jettySize=auto;html=1;entryX=0;entryY=0.5;entryDx=0;entryDy=0;" parent="1" source="Ku4oZlPeEh7fANMUZ4SY-1" target="Ku4oZlPeEh7fANMUZ4SY-13" edge="1">
          <mxGeometry relative="1" as="geometry">
            <Array as="points">
              <mxPoint x="410" y="250" />
              <mxPoint x="410" y="440" />
            </Array>
          </mxGeometry>
        </mxCell>
        <mxCell id="Ku4oZlPeEh7fANMUZ4SY-27" style="edgeStyle=orthogonalEdgeStyle;rounded=0;orthogonalLoop=1;jettySize=auto;html=1;entryX=0;entryY=0.5;entryDx=0;entryDy=0;" parent="1" source="Ku4oZlPeEh7fANMUZ4SY-1" target="Ku4oZlPeEh7fANMUZ4SY-26" edge="1">
          <mxGeometry relative="1" as="geometry">
            <Array as="points">
              <mxPoint x="350" y="250" />
              <mxPoint x="350" y="140" />
            </Array>
          </mxGeometry>
        </mxCell>
        <mxCell id="Ku4oZlPeEh7fANMUZ4SY-1" value="Utilisateur" style="shape=umlActor;verticalLabelPosition=bottom;verticalAlign=top;html=1;outlineConnect=0;" parent="1" vertex="1">
          <mxGeometry x="270" y="220" width="30" height="60" as="geometry" />
        </mxCell>
        <mxCell id="Ku4oZlPeEh7fANMUZ4SY-5" style="edgeStyle=orthogonalEdgeStyle;rounded=0;orthogonalLoop=1;jettySize=auto;html=1;" parent="1" source="Ku4oZlPeEh7fANMUZ4SY-2" target="Ku4oZlPeEh7fANMUZ4SY-1" edge="1">
          <mxGeometry relative="1" as="geometry" />
        </mxCell>
        <mxCell id="Ku4oZlPeEh7fANMUZ4SY-25" style="edgeStyle=orthogonalEdgeStyle;rounded=0;orthogonalLoop=1;jettySize=auto;html=1;entryX=0;entryY=0.5;entryDx=0;entryDy=0;" parent="1" source="Ku4oZlPeEh7fANMUZ4SY-2" target="Ku4oZlPeEh7fANMUZ4SY-14" edge="1">
          <mxGeometry relative="1" as="geometry">
            <Array as="points">
              <mxPoint x="225" y="515" />
            </Array>
          </mxGeometry>
        </mxCell>
        <mxCell id="Ku4oZlPeEh7fANMUZ4SY-2" value="Admin" style="shape=umlActor;verticalLabelPosition=bottom;verticalAlign=top;html=1;outlineConnect=0;" parent="1" vertex="1">
          <mxGeometry x="210" y="360" width="30" height="60" as="geometry" />
        </mxCell>
        <mxCell id="Ku4oZlPeEh7fANMUZ4SY-4" style="edgeStyle=orthogonalEdgeStyle;rounded=0;orthogonalLoop=1;jettySize=auto;html=1;" parent="1" source="Ku4oZlPeEh7fANMUZ4SY-3" target="Ku4oZlPeEh7fANMUZ4SY-1" edge="1">
          <mxGeometry relative="1" as="geometry" />
        </mxCell>
        <mxCell id="Ku4oZlPeEh7fANMUZ4SY-3" value="Client" style="shape=umlActor;verticalLabelPosition=bottom;verticalAlign=top;html=1;outlineConnect=0;" parent="1" vertex="1">
          <mxGeometry x="330" y="360" width="30" height="60" as="geometry" />
        </mxCell>
        <mxCell id="Ku4oZlPeEh7fANMUZ4SY-7" value="création de fichier" style="ellipse;whiteSpace=wrap;html=1;" parent="1" vertex="1">
          <mxGeometry x="430" y="200" width="90" height="60" as="geometry" />
        </mxCell>
        <mxCell id="Ku4oZlPeEh7fANMUZ4SY-10" style="edgeStyle=orthogonalEdgeStyle;rounded=0;orthogonalLoop=1;jettySize=auto;html=1;" parent="1" source="Ku4oZlPeEh7fANMUZ4SY-9" target="Ku4oZlPeEh7fANMUZ4SY-7" edge="1">
          <mxGeometry relative="1" as="geometry" />
        </mxCell>
        <mxCell id="Ku4oZlPeEh7fANMUZ4SY-9" value="type de fichier: PDF, XLSX, XLS, DOC, DOCX, MP3, MP4" style="ellipse;whiteSpace=wrap;html=1;" parent="1" vertex="1">
          <mxGeometry x="570" y="260" width="120" height="80" as="geometry" />
        </mxCell>
        <mxCell id="Ku4oZlPeEh7fANMUZ4SY-11" value="&amp;lt;&amp;lt;extends&amp;gt;&amp;gt;" style="text;html=1;align=center;verticalAlign=middle;whiteSpace=wrap;rounded=0;" parent="1" vertex="1">
          <mxGeometry x="555" y="230" width="60" height="30" as="geometry" />
        </mxCell>
        <mxCell id="Ku4oZlPeEh7fANMUZ4SY-12" value="Partager ses fichiers" style="ellipse;whiteSpace=wrap;html=1;" parent="1" vertex="1">
          <mxGeometry x="430" y="330" width="90" height="60" as="geometry" />
        </mxCell>
        <mxCell id="Ku4oZlPeEh7fANMUZ4SY-13" value="Supprimer ses fichiers" style="ellipse;whiteSpace=wrap;html=1;" parent="1" vertex="1">
          <mxGeometry x="430" y="410" width="90" height="60" as="geometry" />
        </mxCell>
        <mxCell id="Ku4oZlPeEh7fANMUZ4SY-14" value="Créer et supprimer d&#39;autres utilisateurs" style="ellipse;whiteSpace=wrap;html=1;" parent="1" vertex="1">
          <mxGeometry x="430" y="480" width="105" height="70" as="geometry" />
        </mxCell>
        <mxCell id="Ku4oZlPeEh7fANMUZ4SY-16" style="edgeStyle=orthogonalEdgeStyle;rounded=0;orthogonalLoop=1;jettySize=auto;html=1;entryX=1;entryY=1;entryDx=0;entryDy=0;" parent="1" source="Ku4oZlPeEh7fANMUZ4SY-15" target="Ku4oZlPeEh7fANMUZ4SY-7" edge="1">
          <mxGeometry relative="1" as="geometry">
            <Array as="points">
              <mxPoint x="665" y="350" />
              <mxPoint x="530" y="350" />
              <mxPoint x="530" y="251" />
            </Array>
          </mxGeometry>
        </mxCell>
        <mxCell id="Ku4oZlPeEh7fANMUZ4SY-21" value="&amp;lt;&amp;lt;include&amp;gt;&amp;gt;" style="edgeLabel;html=1;align=center;verticalAlign=middle;resizable=0;points=[];" parent="Ku4oZlPeEh7fANMUZ4SY-16" vertex="1" connectable="0">
          <mxGeometry x="-0.1903" y="6" relative="1" as="geometry">
            <mxPoint as="offset" />
          </mxGeometry>
        </mxCell>
        <mxCell id="Ku4oZlPeEh7fANMUZ4SY-17" style="edgeStyle=orthogonalEdgeStyle;rounded=0;orthogonalLoop=1;jettySize=auto;html=1;entryX=1;entryY=0.5;entryDx=0;entryDy=0;" parent="1" source="Ku4oZlPeEh7fANMUZ4SY-15" target="Ku4oZlPeEh7fANMUZ4SY-12" edge="1">
          <mxGeometry relative="1" as="geometry" />
        </mxCell>
        <mxCell id="Ku4oZlPeEh7fANMUZ4SY-18" style="edgeStyle=orthogonalEdgeStyle;rounded=0;orthogonalLoop=1;jettySize=auto;html=1;" parent="1" source="Ku4oZlPeEh7fANMUZ4SY-15" target="Ku4oZlPeEh7fANMUZ4SY-13" edge="1">
          <mxGeometry relative="1" as="geometry" />
        </mxCell>
        <mxCell id="Ku4oZlPeEh7fANMUZ4SY-19" style="edgeStyle=orthogonalEdgeStyle;rounded=0;orthogonalLoop=1;jettySize=auto;html=1;entryX=1;entryY=0.5;entryDx=0;entryDy=0;" parent="1" source="Ku4oZlPeEh7fANMUZ4SY-15" target="Ku4oZlPeEh7fANMUZ4SY-14" edge="1">
          <mxGeometry relative="1" as="geometry" />
        </mxCell>
        <mxCell id="Ku4oZlPeEh7fANMUZ4SY-20" value="&amp;lt;&amp;lt;include&amp;gt;&amp;gt;" style="edgeLabel;html=1;align=center;verticalAlign=middle;resizable=0;points=[];" parent="Ku4oZlPeEh7fANMUZ4SY-19" vertex="1" connectable="0">
          <mxGeometry x="-0.591" relative="1" as="geometry">
            <mxPoint as="offset" />
          </mxGeometry>
        </mxCell>
        <mxCell id="Ku4oZlPeEh7fANMUZ4SY-15" value="utilisateur connecté" style="ellipse;whiteSpace=wrap;html=1;" parent="1" vertex="1">
          <mxGeometry x="620" y="410" width="90" height="60" as="geometry" />
        </mxCell>
        <mxCell id="Ku4oZlPeEh7fANMUZ4SY-26" value="authentification" style="ellipse;whiteSpace=wrap;html=1;" parent="1" vertex="1">
          <mxGeometry x="430" y="110" width="90" height="60" as="geometry" />
        </mxCell>
      </root>
    </mxGraphModel>
  </diagram>
</mxfile>
